<svg xmlns="http://www.w3.org/2000/svg" width="337.54" height="35" viewBox="0 0 337.54 35"><rect class="svg__rect" x="0" y="0" width="115.31" height="35" fill="#EF4041"/><rect class="svg__rect" x="113.31" y="0" width="224.23000000000002" height="35" fill="#C1282D"/><path class="svg__text" d="M15.69 22L14.22 22L14.22 13.47L16.14 13.47L18.60 20.01L21.06 13.47L22.97 13.47L22.97 22L21.49 22L21.49 19.19L21.64 15.43L19.12 22L18.06 22L15.55 15.43L15.69 19.19L15.69 22ZM28.49 22L26.95 22L30.17 13.47L31.50 13.47L34.73 22L33.18 22L32.49 20.01L29.18 20.01L28.49 22ZM30.83 15.28L29.60 18.82L32.07 18.82L30.83 15.28ZM41.14 22L38.69 22L38.69 13.47L41.21 13.47Q42.34 13.47 43.21 13.97Q44.09 14.48 44.57 15.40Q45.05 16.33 45.05 17.52L45.05 17.52L45.05 17.95Q45.05 19.16 44.57 20.08Q44.08 21.00 43.19 21.50Q42.30 22 41.14 22L41.14 22ZM40.17 14.66L40.17 20.82L41.14 20.82Q42.30 20.82 42.93 20.09Q43.55 19.36 43.56 17.99L43.56 17.99L43.56 17.52Q43.56 16.13 42.96 15.40Q42.35 14.66 41.21 14.66L41.21 14.66L40.17 14.66ZM55.09 22L49.51 22L49.51 13.47L55.05 13.47L55.05 14.66L51.00 14.66L51.00 17.02L54.50 17.02L54.50 18.19L51.00 18.19L51.00 20.82L55.09 20.82L55.09 22ZM66.65 22L64.68 13.47L66.15 13.47L67.47 19.88L69.10 13.47L70.34 13.47L71.96 19.89L73.27 13.47L74.74 13.47L72.77 22L71.35 22L69.73 15.77L68.07 22L66.65 22ZM80.38 22L78.90 22L78.90 13.47L80.38 13.47L80.38 22ZM86.87 14.66L84.23 14.66L84.23 13.47L91.00 13.47L91.00 14.66L88.34 14.66L88.34 22L86.87 22L86.87 14.66ZM96.24 22L94.75 22L94.75 13.47L96.24 13.47L96.24 17.02L100.05 17.02L100.05 13.47L101.53 13.47L101.53 22L100.05 22L100.05 18.21L96.24 18.21L96.24 22Z" fill="#FFFFFF"/><path class="svg__text" d="M129.88 22L127.50 22L127.50 13.60L131.34 13.60Q132.48 13.60 133.32 13.98Q134.16 14.35 134.62 15.06Q135.07 15.76 135.07 16.71L135.07 16.71Q135.07 17.66 134.62 18.35Q134.16 19.05 133.32 19.42Q132.48 19.80 131.34 19.80L131.34 19.80L129.88 19.80L129.88 22ZM129.88 15.47L129.88 17.93L131.20 17.93Q131.93 17.93 132.30 17.61Q132.67 17.29 132.67 16.71L132.67 16.71Q132.67 16.12 132.30 15.80Q131.93 15.47 131.20 15.47L131.20 15.47L129.88 15.47ZM141.95 18.95L138.75 13.60L141.26 13.60L143.25 16.94L145.24 13.60L147.54 13.60L144.33 18.99L144.33 22L141.95 22L141.95 18.95ZM153.42 15.48L150.84 15.48L150.84 13.60L158.36 13.60L158.36 15.48L155.79 15.48L155.79 22L153.42 22L153.42 15.48ZM165.11 22L162.73 22L162.73 13.60L165.11 13.60L165.11 16.76L168.35 16.76L168.35 13.60L170.72 13.60L170.72 22L168.35 22L168.35 18.72L165.11 18.72L165.11 22ZM175.46 17.80L175.46 17.80Q175.46 16.55 176.06 15.55Q176.66 14.56 177.73 14.00Q178.79 13.43 180.12 13.43L180.12 13.43Q181.45 13.43 182.51 14.00Q183.58 14.56 184.18 15.55Q184.79 16.55 184.79 17.80L184.79 17.80Q184.79 19.05 184.18 20.04Q183.58 21.04 182.52 21.60Q181.46 22.17 180.12 22.17L180.12 22.17Q178.79 22.17 177.73 21.60Q176.66 21.04 176.06 20.04Q175.46 19.05 175.46 17.80ZM177.85 17.80L177.85 17.80Q177.85 18.51 178.16 19.05Q178.46 19.60 178.97 19.90Q179.49 20.20 180.12 20.20L180.12 20.20Q180.76 20.20 181.28 19.90Q181.79 19.60 182.09 19.05Q182.39 18.51 182.39 17.80L182.39 17.80Q182.39 17.09 182.09 16.54Q181.79 16 181.28 15.70Q180.76 15.40 180.12 15.40L180.12 15.40Q179.48 15.40 178.97 15.70Q178.46 16 178.16 16.54Q177.85 17.09 177.85 17.80ZM191.85 22L189.52 22L189.52 13.60L191.48 13.60L195.19 18.07L195.19 13.60L197.51 13.60L197.51 22L195.56 22L191.85 17.52L191.85 22ZM216.15 19.80L216.15 19.80Q216.15 19.01 216.57 18.42Q216.99 17.82 217.90 17.33L217.90 17.33Q217.10 16.52 217.10 15.64L217.10 15.64Q217.10 15.00 217.45 14.51Q217.80 14.02 218.44 13.75Q219.08 13.48 219.92 13.48L219.92 13.48Q221.09 13.48 221.80 14.03Q222.51 14.57 222.51 15.50L222.51 15.50Q222.51 16.15 222.14 16.65Q221.76 17.15 220.95 17.59L220.95 17.59L222.18 18.69Q222.42 18.16 222.55 17.49L222.55 17.49L224.38 18.04Q224.14 19.12 223.60 19.95L223.60 19.95L224.49 20.74L223.27 22.15L222.32 21.30Q221.73 21.72 221.01 21.95Q220.29 22.17 219.50 22.17L219.50 22.17Q218.55 22.17 217.78 21.86Q217.02 21.55 216.58 21.02Q216.15 20.48 216.15 19.80ZM218.38 19.55L218.38 19.55Q218.38 19.94 218.73 20.18Q219.08 20.43 219.67 20.43L219.67 20.43Q220.37 20.42 220.95 20.08L220.95 20.08L219.14 18.47Q218.74 18.71 218.56 18.97Q218.38 19.23 218.38 19.55ZM219.18 15.60L219.18 15.60Q219.18 15.81 219.29 15.99Q219.40 16.18 219.72 16.48L219.72 16.48Q220.20 16.23 220.40 16.01Q220.59 15.78 220.59 15.54L220.59 15.54Q220.59 15.28 220.42 15.13Q220.25 14.98 219.92 14.98L219.92 14.98Q219.57 14.98 219.38 15.15Q219.18 15.33 219.18 15.60ZM238.48 22L236.10 22L236.10 13.60L239.95 13.60Q241.08 13.60 241.92 13.98Q242.76 14.35 243.22 15.06Q243.68 15.76 243.68 16.71L243.68 16.71Q243.68 17.66 243.22 18.35Q242.76 19.05 241.92 19.42Q241.08 19.80 239.95 19.80L239.95 19.80L238.48 19.80L238.48 22ZM238.48 15.47L238.48 17.93L239.80 17.93Q240.53 17.93 240.90 17.61Q241.28 17.29 241.28 16.71L241.28 16.71Q241.28 16.12 240.90 15.80Q240.53 15.47 239.80 15.47L239.80 15.47L238.48 15.47ZM248.00 17.80L248.00 17.80Q248.00 16.55 248.61 15.55Q249.21 14.56 250.27 14.00Q251.34 13.43 252.67 13.43L252.67 13.43Q254.00 13.43 255.06 14.00Q256.12 14.56 256.73 15.55Q257.34 16.55 257.34 17.80L257.34 17.80Q257.34 19.05 256.73 20.04Q256.12 21.04 255.06 21.60Q254.00 22.17 252.67 22.17L252.67 22.17Q251.34 22.17 250.27 21.60Q249.21 21.04 248.61 20.04Q248.00 19.05 248.00 17.80ZM250.40 17.80L250.40 17.80Q250.40 18.51 250.70 19.05Q251.00 19.60 251.52 19.90Q252.03 20.20 252.67 20.20L252.67 20.20Q253.30 20.20 253.82 19.90Q254.34 19.60 254.63 19.05Q254.93 18.51 254.93 17.80L254.93 17.80Q254.93 17.09 254.63 16.54Q254.34 16 253.82 15.70Q253.30 15.40 252.67 15.40L252.67 15.40Q252.03 15.40 251.51 15.70Q251.00 16 250.70 16.54Q250.40 17.09 250.40 17.80ZM264.14 22L261.42 13.60L263.87 13.60L265.56 18.96L267.33 13.60L269.52 13.60L271.21 19.01L272.97 13.60L275.24 13.60L272.52 22L269.97 22L268.37 16.89L266.69 22L264.14 22ZM286.50 22L279.75 22L279.75 13.60L286.35 13.60L286.35 15.44L282.11 15.44L282.11 16.85L285.84 16.85L285.84 18.63L282.11 18.63L282.11 20.17L286.50 20.17L286.50 22ZM293.68 22L291.30 22L291.30 13.60L295.15 13.60Q296.29 13.60 297.13 13.98Q297.96 14.35 298.42 15.06Q298.88 15.76 298.88 16.71L298.88 16.71Q298.88 17.62 298.45 18.30Q298.02 18.98 297.23 19.36L297.23 19.36L299.04 22L296.50 22L294.98 19.77L293.68 19.77L293.68 22ZM293.68 15.47L293.68 17.93L295.00 17.93Q295.73 17.93 296.10 17.61Q296.48 17.29 296.48 16.71L296.48 16.71Q296.48 16.12 296.10 15.79Q295.73 15.47 295.00 15.47L295.00 15.47L293.68 15.47ZM315.18 22L310.64 22L310.64 13.60L314.94 13.60Q316.54 13.60 317.39 14.19Q318.23 14.79 318.23 15.79L318.23 15.79Q318.23 16.39 317.93 16.87Q317.63 17.34 317.10 17.62L317.10 17.62Q317.82 17.87 318.22 18.41Q318.63 18.94 318.63 19.70L318.63 19.70Q318.63 20.80 317.74 21.40Q316.86 22 315.18 22L315.18 22ZM312.99 18.58L312.99 20.28L314.99 20.28Q316.23 20.28 316.23 19.43L316.23 19.43Q316.23 18.58 314.99 18.58L314.99 18.58L312.99 18.58ZM312.99 15.31L312.99 16.94L314.62 16.94Q315.82 16.94 315.82 16.12L315.82 16.12Q315.82 15.31 314.62 15.31L314.62 15.31L312.99 15.31ZM325.73 22L323.35 22L323.35 13.60L325.73 13.60L325.73 22Z" fill="#FFFFFF" x="126.31"/></svg>